<?xml version="1.0" standalone="no"?>
<!DOCTYPE svg PUBLIC "-//W3C//DTD SVG 20010904//EN"
 "http://www.w3.org/TR/2001/REC-SVG-20010904/DTD/svg10.dtd">
<svg version="1.0" xmlns="http://www.w3.org/2000/svg"
 width="1537.000000pt" height="324.000000pt" viewBox="0 0 1537.000000 324.000000"
 preserveAspectRatio="xMidYMid meet">

<g transform="translate(0.000000,324.000000) scale(0.100000,-0.100000)"
fill="#f36100" stroke="none">
<path d="M2052 2565 c-64 -28 -62 -1 -61 -862 0 -575 3 -787 12 -813 20 -58
58 -70 220 -70 163 0 200 11 222 64 13 30 15 153 15 818 0 725 -1 786 -18 818
-11 24 -28 39 -52 47 -51 17 -296 16 -338 -2z"/>
<path d="M6153 2559 c-17 -5 -43 -22 -56 -39 l-25 -29 -1 -448 c-1 -265 -7
-543 -16 -681 -16 -265 -12 -312 34 -356 57 -54 160 -41 201 26 14 24 20 51
20 98 0 36 3 102 7 148 l6 83 65 45 c36 25 68 42 72 37 46 -50 239 -309 271
-363 54 -91 78 -110 141 -110 43 0 54 5 90 38 35 33 41 44 41 80 0 58 -56 150
-214 354 -71 92 -129 169 -129 171 0 2 67 71 149 153 166 166 179 188 146 258
-30 64 -118 96 -178 65 -12 -7 -78 -66 -147 -133 -120 -117 -285 -266 -295
-266 -2 0 -3 172 -2 383 2 359 1 384 -17 421 -14 27 -32 44 -60 57 -45 21 -56
21 -103 8z"/>
<path d="M12812 2545 c-64 -28 -62 -1 -61 -862 0 -575 3 -787 12 -813 20 -58
58 -70 220 -70 163 0 200 11 222 64 13 30 15 153 15 816 0 868 2 838 -64 865
-49 21 -297 20 -344 0z"/>
<path d="M9212 2525 c-120 -26 -253 -128 -372 -286 -320 -426 -360 -1011 -81
-1210 89 -64 170 -84 336 -84 126 1 148 4 220 28 242 84 416 269 496 527 12
41 34 87 47 102 34 37 40 111 14 154 -41 65 -105 74 -373 53 -260 -20 -450
-73 -519 -144 -58 -59 -49 -146 19 -194 41 -30 87 -26 204 14 95 32 249 65
303 65 31 0 30 -9 -6 -86 -45 -94 -126 -176 -218 -221 -75 -37 -78 -38 -191
-38 -104 0 -120 2 -158 24 -24 14 -49 38 -58 57 -64 135 -35 414 63 609 67
134 219 318 296 357 64 33 139 22 256 -37 63 -31 108 -48 132 -48 51 0 104 41
119 94 16 53 -4 96 -68 144 -79 58 -307 138 -382 134 -9 0 -44 -7 -79 -14z"/>
<path d="M3015 2503 c-34 -9 -72 -41 -83 -70 -6 -16 -15 -213 -21 -458 -6
-236 -16 -531 -23 -655 -6 -124 -8 -243 -4 -265 10 -52 67 -109 126 -125 97
-27 427 6 661 65 176 45 227 79 236 157 6 54 -25 104 -80 132 l-38 18 -152
-41 c-172 -46 -362 -81 -444 -81 l-55 0 6 83 c20 246 26 389 33 748 6 395 6
397 -16 432 -13 22 -36 41 -61 51 -41 16 -50 17 -85 9z"/>
<path d="M1552 2485 c-63 -28 -62 -11 -62 -770 0 -763 -2 -743 64 -770 48 -20
234 -20 282 0 66 27 64 7 64 772 0 635 -1 691 -18 723 -11 24 -28 39 -52 47
-50 17 -237 16 -278 -2z"/>
<path d="M13342 2455 c-63 -28 -62 -11 -61 -767 0 -502 3 -692 12 -718 19 -55
60 -70 190 -70 72 0 119 5 143 15 66 27 64 7 64 770 0 763 2 743 -64 770 -47
20 -238 20 -284 0z"/>
<path d="M1172 2265 c-61 -27 -62 -34 -62 -530 0 -499 1 -504 64 -530 82 -35
187 -10 211 49 22 52 22 910 0 962 -24 59 -133 84 -213 49z"/>
<path d="M13782 2225 c-61 -27 -62 -34 -62 -530 0 -499 1 -504 64 -530 45 -19
117 -19 162 0 63 26 64 31 64 530 0 499 -1 504 -64 530 -44 19 -121 19 -164 0z"/>
<path d="M11170 2083 c-42 -16 -82 -78 -99 -155 -6 -26 -7 -203 -2 -453 7
-442 8 -451 63 -489 29 -20 101 -20 143 0 60 28 65 54 65 310 l0 227 27 36
c72 95 214 224 226 204 3 -5 8 -62 11 -128 4 -66 14 -187 22 -269 8 -83 18
-207 23 -278 7 -123 8 -129 36 -158 72 -75 188 -52 225 44 11 30 3 157 -25
401 -7 66 -16 156 -19 200 l-6 80 47 31 c55 36 168 94 182 94 38 0 62 -104 95
-422 34 -323 43 -366 76 -399 59 -59 177 -41 212 32 17 34 17 43 -12 270 -46
360 -77 560 -95 602 -24 57 -90 123 -143 144 -95 37 -243 14 -341 -52 l-52
-34 -35 39 c-67 74 -191 96 -288 50 -27 -13 -78 -50 -113 -83 l-63 -59 1 62
c2 66 -12 96 -62 131 -27 20 -76 30 -99 22z"/>
<path d="M4063 2029 c-51 -15 -71 -55 -89 -171 -20 -127 -14 -429 11 -587 26
-163 66 -225 185 -280 79 -36 229 -42 354 -12 l88 21 20 -25 c43 -56 146 -55
199 1 l24 26 0 316 c0 175 4 390 9 479 l9 162 -30 30 c-16 16 -48 35 -71 42
-35 10 -48 9 -85 -5 -26 -10 -49 -27 -60 -45 -26 -44 -37 -186 -37 -478 0
-240 -1 -262 -17 -267 -84 -25 -254 -33 -292 -13 -33 16 -39 45 -53 234 -10
142 -10 180 6 316 17 143 17 156 2 188 -27 58 -105 89 -173 68z"/>
<path d="M5379 2026 c-190 -51 -390 -339 -406 -586 -10 -147 30 -256 126 -350
135 -132 343 -178 524 -116 141 48 237 109 258 164 22 59 -41 142 -107 142
-20 0 -71 -17 -118 -40 -112 -53 -162 -63 -239 -49 -74 13 -102 27 -145 71
-74 78 -69 204 15 358 44 81 96 146 133 165 57 29 164 11 243 -40 47 -32 102
-41 137 -23 34 18 70 75 70 111 0 48 -78 117 -176 155 -131 50 -227 62 -315
38z"/>
<path d="M7933 2013 c-60 -12 -130 -132 -315 -543 l-29 -65 -74 143 c-123 238
-248 431 -290 450 -65 30 -149 2 -181 -59 -23 -46 -13 -99 34 -172 45 -69 248
-433 319 -573 l47 -91 -68 -154 c-95 -213 -136 -331 -136 -386 0 -39 5 -50 35
-79 43 -40 92 -52 142 -33 49 19 66 46 116 184 63 173 119 297 356 786 140
290 211 447 211 468 0 49 -25 87 -73 110 -43 21 -52 22 -94 14z"/>
<path d="M10783 2005 c-17 -7 -46 -33 -62 -56 -36 -49 -136 -243 -211 -411
-29 -65 -56 -118 -59 -118 -3 0 -43 70 -89 156 -100 189 -195 342 -243 395
-32 35 -41 39 -84 39 -59 0 -107 -28 -129 -74 -28 -60 -30 -56 108 -296 123
-213 286 -518 286 -534 0 -8 -30 -82 -66 -163 -77 -174 -134 -333 -134 -374 0
-46 26 -87 70 -109 46 -24 81 -25 118 -6 45 23 59 46 107 181 62 171 133 328
370 815 208 427 216 451 181 506 -17 25 -87 64 -116 63 -8 0 -29 -6 -47 -14z"/>
</g>
</svg>
